<?xml version="1.0" encoding="UTF-8"?><svg xmlns="http://www.w3.org/2000/svg" xmlns:xlink="http://www.w3.org/1999/xlink" contentScriptType="text/ecmascript" width="375pt" zoomAndPan="magnify" contentStyleType="text/css" viewBox="0 0 375 374.999991" height="374.999991pt" preserveAspectRatio="xMidYMid meet" version="1.2"><defs><clipPath xml:id="clip1" id="clip1"><path d="M 165 124.242188 L 210 124.242188 L 210 250.992188 L 165 250.992188 Z M 165 124.242188 "/></clipPath></defs><g xml:id="surface1" id="surface1"><rect x="0" width="375" y="0" height="374.999991" style="fill:rgb(100%,100%,100%);fill-opacity:1;stroke:none;"/><rect x="0" width="375" y="0" height="374.999991" style="fill:rgb(100%,100%,100%);fill-opacity:1;stroke:none;"/><rect x="0" width="375" y="0" height="374.999991" style="fill:rgb(10.5896%,15.289307%,27.839661%);fill-opacity:1;stroke:none;"/><path style=" stroke:none;fill-rule:nonzero;fill:rgb(100%,100%,100%);fill-opacity:1;" d="M 187.378906 187.429688 C 181.640625 187.429688 175.832031 185.773438 175.832031 182.605469 L 175.832031 177.753906 C 175.832031 177.148438 176.320312 176.652344 176.925781 176.652344 C 177.53125 176.652344 178.023438 177.148438 178.023438 177.753906 L 178.023438 182.605469 C 178.023438 183.390625 181.207031 185.226562 187.378906 185.226562 C 193.546875 185.226562 196.730469 183.390625 196.730469 182.605469 L 196.730469 177.753906 C 196.730469 177.148438 197.21875 176.652344 197.828125 176.652344 C 198.433594 176.652344 198.921875 177.148438 198.921875 177.753906 L 198.921875 182.605469 C 198.921875 185.773438 193.113281 187.429688 187.378906 187.429688 "/><path style=" stroke:none;fill-rule:nonzero;fill:rgb(100%,100%,100%);fill-opacity:1;" d="M 187.378906 192.40625 C 181.640625 192.40625 175.832031 190.746094 175.832031 187.578125 L 175.832031 182.726562 C 175.832031 182.121094 176.320312 181.625 176.925781 181.625 C 177.53125 181.625 178.023438 182.121094 178.023438 182.726562 L 178.023438 187.578125 C 178.023438 188.363281 181.207031 190.199219 187.378906 190.199219 C 193.546875 190.199219 196.730469 188.363281 196.730469 187.578125 L 196.730469 182.726562 C 196.730469 182.121094 197.21875 181.625 197.828125 181.625 C 198.433594 181.625 198.921875 182.121094 198.921875 182.726562 L 198.921875 187.578125 C 198.921875 190.746094 193.113281 192.40625 187.378906 192.40625 "/><path style=" stroke:none;fill-rule:nonzero;fill:rgb(100%,100%,100%);fill-opacity:1;" d="M 187.378906 197.378906 C 181.640625 197.378906 175.832031 195.722656 175.832031 192.554688 L 175.832031 187.707031 C 175.832031 187.097656 176.320312 186.601562 176.925781 186.601562 C 177.53125 186.601562 178.023438 187.097656 178.023438 187.707031 L 178.023438 192.554688 C 178.023438 193.339844 181.207031 195.175781 187.378906 195.175781 C 193.546875 195.175781 196.730469 193.339844 196.730469 192.554688 L 196.730469 187.703125 C 196.730469 187.09375 197.21875 186.601562 197.828125 186.601562 C 198.433594 186.601562 198.921875 187.09375 198.921875 187.703125 L 198.921875 192.554688 C 198.921875 195.722656 193.113281 197.378906 187.378906 197.378906 "/><path style=" stroke:none;fill-rule:nonzero;fill:rgb(100%,100%,100%);fill-opacity:1;" d="M 187.378906 202.351562 C 181.640625 202.351562 175.832031 200.695312 175.832031 197.527344 L 175.832031 192.675781 C 175.832031 192.070312 176.320312 191.578125 176.925781 191.578125 C 177.53125 191.578125 178.023438 192.070312 178.023438 192.675781 L 178.023438 197.527344 C 178.023438 198.3125 181.207031 200.148438 187.378906 200.148438 C 193.546875 200.148438 196.730469 198.3125 196.730469 197.527344 L 196.730469 192.675781 C 196.730469 192.070312 197.21875 191.578125 197.828125 191.578125 C 198.433594 191.578125 198.921875 192.070312 198.921875 192.675781 L 198.921875 197.527344 C 198.921875 200.695312 193.113281 202.351562 187.378906 202.351562 "/><path style=" stroke:none;fill-rule:nonzero;fill:rgb(100%,100%,100%);fill-opacity:1;" d="M 187.378906 175.089844 C 181.207031 175.089844 178.023438 176.929688 178.023438 177.710938 C 178.023438 177.976562 178.527344 178.574219 179.914062 179.140625 C 181.773438 179.898438 184.492188 180.335938 187.378906 180.335938 C 190.257812 180.335938 192.980469 179.898438 194.839844 179.140625 C 196.226562 178.574219 196.730469 177.976562 196.730469 177.710938 C 196.730469 176.929688 193.546875 175.089844 187.378906 175.089844 Z M 187.378906 182.539062 C 184.222656 182.539062 181.199219 182.042969 179.085938 181.179688 C 176.394531 180.082031 175.832031 178.6875 175.832031 177.710938 C 175.832031 174.546875 181.640625 172.886719 187.378906 172.886719 C 193.113281 172.886719 198.921875 174.546875 198.921875 177.710938 C 198.921875 178.6875 198.355469 180.082031 195.667969 181.179688 C 193.554688 182.042969 190.53125 182.539062 187.378906 182.539062 "/><g clip-rule="nonzero" clip-path="url(#clip1)"><path style=" stroke:none;fill-rule:nonzero;fill:rgb(100%,100%,100%);fill-opacity:1;" d="M 187.378906 126.445312 C 182.375 126.445312 177.367188 132.820312 173.636719 143.9375 C 169.726562 155.589844 167.574219 171.101562 167.574219 187.621094 C 167.574219 204.136719 169.726562 219.652344 173.636719 231.304688 C 177.367188 242.417969 182.375 248.792969 187.378906 248.792969 C 192.378906 248.792969 197.382812 242.417969 201.113281 231.304688 C 205.027344 219.652344 207.179688 204.136719 207.179688 187.621094 C 207.179688 171.101562 205.027344 155.589844 201.113281 143.9375 C 197.382812 132.820312 192.378906 126.445312 187.378906 126.445312 Z M 187.378906 250.996094 C 181.285156 250.996094 175.667969 244.253906 171.558594 232.007812 C 167.574219 220.136719 165.382812 204.371094 165.382812 187.621094 C 165.382812 170.871094 167.574219 155.105469 171.558594 143.234375 C 175.667969 130.988281 181.285156 124.242188 187.378906 124.242188 C 193.46875 124.242188 199.085938 130.988281 203.195312 143.234375 C 207.179688 155.105469 209.371094 170.871094 209.371094 187.621094 C 209.371094 204.371094 207.179688 220.136719 203.195312 232.007812 C 199.085938 244.253906 193.46875 250.996094 187.378906 250.996094 "/></g><path style=" stroke:none;fill-rule:nonzero;fill:rgb(100%,100%,100%);fill-opacity:1;" d="M 228.511719 152.667969 C 225.511719 152.667969 222.042969 153.050781 218.179688 153.832031 C 206.175781 156.257812 191.722656 162.140625 177.476562 170.398438 C 163.230469 178.660156 150.929688 188.289062 142.835938 197.515625 C 135.113281 206.316406 132.117188 213.859375 134.621094 218.207031 C 137.121094 222.554688 145.121094 223.722656 156.574219 221.410156 C 168.578125 218.984375 183.03125 213.101562 197.277344 204.839844 C 211.523438 196.582031 223.824219 186.953125 231.917969 177.726562 C 239.640625 168.925781 242.636719 161.382812 240.136719 157.03125 C 238.476562 154.152344 234.402344 152.667969 228.511719 152.667969 Z M 146.253906 224.777344 C 139.480469 224.777344 134.796875 222.925781 132.71875 219.308594 C 129.675781 214.011719 132.683594 205.753906 141.1875 196.058594 C 149.433594 186.65625 161.933594 176.867188 176.378906 168.492188 C 190.824219 160.117188 205.515625 154.144531 217.75 151.671875 C 230.363281 149.121094 238.988281 150.636719 242.035156 155.933594 C 245.078125 161.226562 242.070312 169.484375 233.566406 179.183594 C 225.320312 188.582031 212.820312 198.371094 198.375 206.75 C 183.929688 215.125 169.238281 221.097656 157.003906 223.570312 C 153.003906 224.378906 149.402344 224.777344 146.253906 224.777344 "/><path style=" stroke:none;fill-rule:nonzero;fill:rgb(100%,100%,100%);fill-opacity:1;" d="M 146.242188 152.667969 C 140.351562 152.667969 136.277344 154.152344 134.621094 157.03125 C 132.117188 161.382812 135.113281 168.925781 142.835938 177.726562 C 150.929688 186.953125 163.230469 196.582031 177.476562 204.839844 C 191.722656 213.101562 206.175781 218.984375 218.179688 221.410156 C 229.632812 223.722656 237.632812 222.554688 240.136719 218.207031 C 242.636719 213.859375 239.640625 206.316406 231.917969 197.515625 C 223.824219 188.289062 211.523438 178.660156 197.277344 170.398438 C 183.03125 162.140625 168.578125 156.257812 156.574219 153.832031 C 152.710938 153.050781 149.242188 152.667969 146.242188 152.667969 Z M 228.5 224.777344 C 225.351562 224.777344 221.75 224.378906 217.75 223.570312 C 205.515625 221.097656 190.824219 215.125 176.378906 206.75 C 161.933594 198.371094 149.433594 188.582031 141.1875 179.183594 C 132.683594 169.484375 129.675781 161.226562 132.71875 155.933594 C 135.765625 150.636719 144.390625 149.121094 157.003906 151.671875 C 169.238281 154.144531 183.929688 160.117188 198.375 168.492188 C 212.820312 176.867188 225.320312 186.65625 233.566406 196.058594 C 242.070312 205.753906 245.078125 214.011719 242.035156 219.308594 C 239.957031 222.925781 235.273438 224.777344 228.5 224.777344 "/></g></svg>